<svg width="24" height="24" viewBox="0 0 24 24" fill="none" xmlns="http://www.w3.org/2000/svg">
<path fill-rule="evenodd" clip-rule="evenodd" d="M8.46084 11.6643C8.21326 8.70386 9.57482 5.85359 12 4.17412C14.4252 5.85359 15.7867 8.70386 15.5392 11.6643L15.1671 16.1132L14.9392 16.9961H9.06075L8.83291 16.1133L8.46084 11.6643ZM6.82705 16.2303L6.45909 11.8305C6.45626 11.7966 6.45359 11.7628 6.4511 11.7289C5.80608 12.74 5.18299 14.3068 5.01412 16.6948L6.82705 16.2303ZM6.7114 8.56242C7.35066 5.92525 9.02426 3.59734 11.4353 2.15585C11.7829 1.94805 12.2171 1.94805 12.5647 2.15585C14.9757 3.59734 16.6493 5.92525 17.2886 8.56242C17.676 8.8338 18.1445 9.2312 18.6177 9.79731C19.7078 11.1016 20.7704 13.2375 20.9955 16.64C21.0868 18.0211 19.7795 18.9648 18.5302 18.6447L16.9548 18.2411C16.7795 18.6868 16.3443 18.9977 15.8412 18.9977H16.0174V19.9985C16.0174 21.1039 15.1181 22 14.0087 22H9.99131C8.88194 22 7.98262 21.1039 7.98262 19.9985V18.9977H8.15879C7.65566 18.9977 7.22048 18.6868 7.04524 18.2411L5.46983 18.6447C4.22052 18.9648 2.91317 18.0211 3.00453 16.64C3.22958 13.2375 4.29217 11.1016 5.38234 9.79731C5.85553 9.2312 6.32401 8.8338 6.7114 8.56242ZM18.9859 16.6948C18.817 14.3068 18.1939 12.74 17.5489 11.7289C17.5464 11.7628 17.5437 11.7966 17.5409 11.8305L17.173 16.2303L18.9859 16.6948ZM14.0087 18.9977H9.99131V19.9985H14.0087V18.9977Z" fill="black"/>
</svg>
