<svg width="24" height="24" viewBox="0 0 24 24" fill="none" xmlns="http://www.w3.org/2000/svg">
<path fill-rule="evenodd" clip-rule="evenodd" d="M5.33122 10H9H15H18.6688L17.4146 18.1521C17.3396 18.6399 16.9198 19 16.4262 19H7.57376C7.08019 19 6.66044 18.6399 6.58539 18.1521L5.33122 10ZM16 7V8H18.6688H21C21.5523 8 22 8.44772 22 9C22 9.55228 21.5523 10 21 10H20.6692C20.669 10.1001 20.6613 10.2017 20.6455 10.3041L19.3914 18.4562C19.1662 19.9197 17.907 21 16.4262 21H7.57376C6.09304 21 4.83379 19.9197 4.60864 18.4562L3.35448 10.3041C3.33872 10.2017 3.331 10.1001 3.3308 10H3C2.44772 10 2 9.55228 2 9C2 8.44772 2.44772 8 3 8H5.33122H8V7C8 4.79086 9.79086 3 12 3C14.2091 3 16 4.79086 16 7ZM10 7V8H14V7C14 5.89543 13.1046 5 12 5C10.8954 5 10 5.89543 10 7ZM12 17C11.4477 17 11 16.5523 11 16V13C11 12.4477 11.4477 12 12 12C12.5523 12 13 12.4477 13 13V16C13 16.5523 12.5523 17 12 17ZM8 16C8 16.5523 8.44772 17 9 17C9.55228 17 10 16.5523 10 16V13C10 12.4477 9.55228 12 9 12C8.44772 12 8 12.4477 8 13V16ZM14 16C14 16.5523 14.4477 17 15 17C15.5523 17 16 16.5523 16 16V13C16 12.4477 15.5523 12 15 12C14.4477 12 14 12.4477 14 13V16Z" fill="black"/>
</svg>
