<svg width="24" height="24" viewBox="0 0 24 24" fill="none" xmlns="http://www.w3.org/2000/svg">
<path fill-rule="evenodd" clip-rule="evenodd" d="M13.783 2.54951C12.7078 1.78958 11.2628 1.81955 10.22 2.62341L4.16842 7.28839C3.43161 7.85638 3 8.73405 3 9.66437V20.001C3 21.1056 3.89543 22.001 5 22.001H7.42857V22.0007H8.4C8.95228 22.0007 9.4 21.553 9.4 21.0007V18.6048C9.4 17.1689 10.5641 16.0048 12 16.0048C13.4359 16.0048 14.6 17.1689 14.6 18.6048V21.0007C14.6 21.553 15.0477 22.0007 15.6 22.0007H17.7143V22.001H19C20.1046 22.001 21 21.1056 21 20.001V9.20359C21 8.22945 20.527 7.31596 19.7315 6.75372L13.783 2.54951ZM18 20.001L19 20.001V9.20359C19 8.87888 18.8423 8.57438 18.5772 8.38697L12.6287 4.18277C12.2703 3.92945 11.7886 3.93944 11.441 4.2074L5.38947 8.87238C5.14387 9.06171 5 9.35427 5 9.66437V20.001H6V20.0007H7.4V18.6048C7.4 16.0643 9.45949 14.0048 12 14.0048C14.5405 14.0048 16.6 16.0643 16.6 18.6048V20.0007H18V20.001Z" fill="black"/>
</svg>
