<svg width="24" height="24" viewBox="0 0 24 24" fill="none" xmlns="http://www.w3.org/2000/svg">
<path fill-rule="evenodd" clip-rule="evenodd" d="M2 19C2 20.1046 2.89543 21 4 21L4.66667 21L7 21C8.10457 21 9 20.1046 9 19L9 15C9 13.8954 8.10457 13 7 13L4 13C2.89543 13 2 13.8954 2 15L2 19ZM4 19L4 15L7 15L7 19L4.66667 19L4 19ZM2 9C2 10.1046 2.89543 11 4 11L6 11L11 11C12.1046 11 13 10.1046 13 9L13 5C13 3.89543 12.1046 3 11 3L4 3C2.89543 3 2 3.89543 2 5L2 9ZM4 9L4 5L11 5L11 9L6 9L4 9ZM17 11C15.8954 11 15 10.1046 15 9L15 5C15 3.89543 15.8954 3 17 3L20 3C21.1046 3 22 3.89543 22 5L22 9C22 10.1046 21.1046 11 20 11L17.6667 11L17 11ZM17 5L17 9L17.6667 9L20 9L20 5L17 5ZM11 19C11 20.1046 11.8954 21 13 21L15 21L20 21C21.1046 21 22 20.1046 22 19L22 15C22 13.8954 21.1046 13 20 13L13 13C11.8954 13 11 13.8954 11 15L11 19ZM13 19L13 15L20 15L20 19L15 19L13 19Z" fill="black"/>
</svg>
