<svg width="449" height="449" viewBox="0 0 449 449" fill="none" xmlns="http://www.w3.org/2000/svg">
<path d="M442.027 409.917L358.396 327.037C421.865 247.892 415.891 131.411 343.464 58.984C305.385 20.9053 255.36 0 201.597 0C147.837 0 97.0667 20.9067 58.984 58.984C20.9053 97.0627 0 147.093 0 201.597C0 256.103 20.9067 306.128 58.984 344.211C97.0627 381.544 147.093 403.195 201.597 403.195C247.144 403.195 291.947 387.512 327.035 359.143L409.915 442.023C414.394 446.502 419.623 448.742 425.597 448.742C431.572 448.742 437.545 446.502 441.28 442.023C450.238 433.059 450.238 418.877 442.025 409.913L442.027 409.917ZM358.396 201.597C358.396 243.409 341.969 282.983 312.104 312.103C282.24 341.223 243.411 358.395 201.599 358.395C159.787 358.395 120.213 341.968 91.0933 312.103C61.968 282.239 44.796 243.409 44.796 201.597C44.796 159.785 61.2227 120.212 91.088 91.092C120.957 61.9667 159.036 44.7947 201.599 44.7947C243.411 44.7947 282.984 61.2213 312.104 91.0867C341.224 120.956 358.396 159.035 358.396 201.597Z" fill="black"/>
</svg>
