<svg width="24" height="24" viewBox="0 0 24 24" fill="none" xmlns="http://www.w3.org/2000/svg">
<path fill-rule="evenodd" clip-rule="evenodd" d="M12.0001 4.3094L18.6604 8.1547V15.8453L12.0001 19.6906L5.33984 15.8453V8.1547L12.0001 4.3094ZM11.0001 2.57735C11.6189 2.22009 12.3813 2.22009 13.0001 2.57735L19.6604 6.42265C20.2792 6.77992 20.6604 7.44017 20.6604 8.1547V15.8453C20.6604 16.5598 20.2792 17.2201 19.6604 17.5774L13.0001 21.4227C12.3813 21.7799 11.6189 21.7799 11.0001 21.4227L4.33984 17.5774C3.72104 17.2201 3.33984 16.5598 3.33984 15.8453V8.1547C3.33984 7.44017 3.72104 6.77992 4.33984 6.42265L11.0001 2.57735ZM8 12C8 9.79086 9.79086 8 12 8C14.2091 8 16 9.79086 16 12C16 14.2091 14.2091 16 12 16C9.79086 16 8 14.2091 8 12ZM12 10C10.8954 10 10 10.8954 10 12C10 13.1046 10.8954 14 12 14C13.1046 14 14 13.1046 14 12C14 10.8954 13.1046 10 12 10Z" fill="black"/>
</svg>
