<svg width="24" height="24" viewBox="0 0 24 24" fill="none" xmlns="http://www.w3.org/2000/svg">
<path fill-rule="evenodd" clip-rule="evenodd" d="M12.0001 1.67443C10.4721 1.67443 9.2332 2.79888 9.2332 4.18606V4.4761C9.91833 4.46507 10.67 4.46507 11.4949 4.46507H12.5053C13.3302 4.46507 14.0818 4.46507 14.7669 4.4761V4.18606C14.7669 2.79888 13.528 1.67443 12.0001 1.67443ZM16.6115 4.55214V4.18605C16.6115 1.87401 14.5468 0 12.0001 0C9.45328 0 7.38862 1.87401 7.38862 4.18605V4.55214C7.21302 4.56578 7.04359 4.58167 6.87951 4.59998C5.63774 4.73939 4.61373 5.03185 3.74394 5.68725C2.87414 6.34243 2.36873 7.20208 1.9889 8.28447C1.62102 9.33342 1.34246 10.6821 0.992305 12.3775L0.966779 12.5004C0.472696 14.8925 0.0833845 16.7775 0.0119731 18.2638C-0.0613146 19.787 0.188404 21.0486 1.135 22.084C2.08159 23.1193 3.40162 23.5747 5.06442 23.7899C6.68665 24 8.79948 24 11.4804 24H12.5196C15.2006 24 17.3135 24 18.9356 23.7899C20.5984 23.5747 21.9184 23.1192 22.865 22.084C23.8116 21.0486 24.0613 19.787 23.988 18.2638C23.9166 16.7776 23.5271 14.8925 23.033 12.5004L23.0077 12.3775C22.6575 10.6821 22.379 9.33342 22.0111 8.28447C21.6313 7.20208 21.1259 6.34243 20.2561 5.68725C19.3863 5.03189 18.3623 4.73944 17.1203 4.59998C16.9564 4.58167 16.7868 4.56578 16.6114 4.55214H16.6115ZM7.10561 6.26187C6.05362 6.37978 5.41809 6.6018 4.92174 6.97574C4.42539 7.3495 4.06802 7.87558 3.74643 8.79259C3.41704 9.73146 3.15785 10.9781 2.79368 12.7411C2.28251 15.2161 1.91956 16.9838 1.85452 18.3365C1.79071 19.6664 2.0256 20.4363 2.55425 21.0145C3.0827 21.5927 3.87323 21.9442 5.3248 22.1322C6.80152 22.3236 8.78233 22.3254 11.5563 22.3254H12.4432C15.2173 22.3254 17.1981 22.3236 18.6747 22.1322C20.1263 21.9442 20.9166 21.5927 21.4452 21.0145C21.9739 20.4363 22.2088 19.6664 22.145 18.3365C22.0799 16.9838 21.717 15.216 21.2058 12.7411C20.8416 10.9781 20.5825 9.73146 20.2531 8.79259C19.9315 7.87558 19.5741 7.34952 19.0778 6.97574C18.5814 6.6018 17.9459 6.37979 16.8939 6.26187C15.8164 6.14096 14.4189 6.13946 12.443 6.13946H11.5562C9.58024 6.13946 8.18279 6.14096 7.10529 6.26187H7.10561Z" fill="black"/>
</svg>
