<svg width="24" height="24" viewBox="0 0 24 24" fill="none" xmlns="http://www.w3.org/2000/svg">
<path fill-rule="evenodd" clip-rule="evenodd" d="M12 2C12.7211 2 13.3864 2.38821 13.7412 3.01602L16.1765 7.32553L20.384 8.14867C21.117 8.29206 21.709 8.83192 21.9192 9.54861C22.1294 10.2653 21.9227 11.0394 21.3833 11.556L18.1832 14.6204L18.9235 19.7122C19.0308 20.4509 18.718 21.1878 18.112 21.6237C17.5061 22.0595 16.7079 22.1216 16.0418 21.7848L12 19.7411L7.95819 21.7848C7.2921 22.1216 6.49389 22.0595 5.88794 21.6237C5.28199 21.1878 4.96914 20.4509 5.07653 19.7122L5.81683 14.6204L2.61673 11.556C2.0773 11.0394 1.87064 10.2653 2.08083 9.54861C2.29101 8.83192 2.88302 8.29206 3.616 8.14867L7.82344 7.32553L10.2588 3.01602C10.6136 2.38821 11.2789 2 12 2ZM9.11145 9.11146L4 10.1115L7.94427 13.8885L7.05572 20L12 17.5L16.9443 20L16.0557 13.8885L20 10.1115L14.8885 9.11146L12 4L9.11145 9.11146Z" fill="black"/>
</svg>
