<svg width="24" height="24" viewBox="0 0 24 24" fill="none" xmlns="http://www.w3.org/2000/svg">
<path fill-rule="evenodd" clip-rule="evenodd" d="M12 2.98753L17.5012 3.00093C17.7769 3.0016 18 3.22386 18 3.49781V18.4836C18 18.9512 17.4092 19.1599 17.1122 18.7972L15.5383 16.8749C15.1403 16.3888 14.3944 16.3857 13.9923 16.8685L12.3565 18.8324C12.1664 19.0607 11.8188 19.0739 11.6116 18.8607L9.61352 16.8045C9.17616 16.3544 8.43412 16.4132 8.07396 16.9264L6.91011 18.5847C6.63021 18.9835 6 18.7867 6 18.3005V3.48441C6 3.20999 6.22386 2.98753 6.5 2.98753H12ZM12.0049 1.00001L17.5061 1.01341C18.8844 1.01676 20 2.12808 20 3.49781V18.4836C20 20.8217 17.0458 21.8652 15.5608 20.0516L14.756 19.0686L13.8972 20.0997C12.9466 21.241 11.2086 21.3071 10.173 20.2414L9.01912 19.054L8.55055 19.7217C7.15102 21.7158 4 20.7317 4 18.3005V3.48441C4 2.11231 5.11929 1 6.5 1L12.0049 1.00001ZM8 11.9314C8 11.3826 8.44772 10.9376 9 10.9376H15C15.5523 10.9376 16 11.3826 16 11.9314C16 12.4802 15.5523 12.9252 15 12.9252H9C8.44772 12.9252 8 12.4802 8 11.9314ZM9 5.96881C8.44772 5.96881 8 6.41374 8 6.96258C8 7.51142 8.44772 7.95634 9 7.95634H15C15.5523 7.95634 16 7.51142 16 6.96258C16 6.41374 15.5523 5.96881 15 5.96881H9Z" fill="black"/>
</svg>
