<svg width="24" height="24" viewBox="0 0 24 24" fill="none" xmlns="http://www.w3.org/2000/svg">
<path fill-rule="evenodd" clip-rule="evenodd" d="M4 5C2.89543 5 2 5.89543 2 7V8.25C2 8.92984 2.34527 9.5624 2.91535 9.93034L2.92346 9.93606C2.94173 9.94911 2.98013 9.97749 3.03213 10.0208C3.13805 10.1091 3.28809 10.2492 3.43826 10.4369C3.73537 10.8083 4 11.3185 4 12C4 12.6815 3.73537 13.1917 3.43826 13.5631C3.28809 13.7508 3.13805 13.8909 3.03213 13.9792C2.98013 14.0225 2.94173 14.0509 2.92346 14.0639L2.91536 14.0697C2.34527 14.4376 2 15.0702 2 15.75V17C2 18.1046 2.89543 19 4 19H20C21.1046 19 22 18.1046 22 17V15.75C22 15.0702 21.6548 14.4377 21.0847 14.0697L21.0765 14.0639C21.0583 14.0509 21.0199 14.0225 20.9679 13.9792C20.862 13.8909 20.7119 13.7508 20.5617 13.5631C20.2646 13.1917 20 12.6815 20 12C20 11.3185 20.2646 10.8083 20.5617 10.4369C20.7119 10.2492 20.862 10.1091 20.9679 10.0208C21.0199 9.97749 21.0583 9.94911 21.0765 9.93606L21.0847 9.93034C21.6547 9.5624 22 8.92984 22 8.25V7C22 5.89543 21.1046 5 20 5H4ZM4 8.25C4 8.25 4.4 8.5 4.84223 9C5.38885 9.61803 6 10.618 6 12C6 13.382 5.38885 14.382 4.84223 15C4.4 15.5 4 15.75 4 15.75V17H4.78161H5.65457H6H14V7H6H5.65457H4.78161H4V8.25ZM16 7V17H18H18.3454H19.2184H20V15.75C20 15.75 19.6 15.5 19.1578 15C18.6111 14.382 18 13.382 18 12C18 10.618 18.6111 9.61803 19.1578 9C19.6 8.5 20 8.25 20 8.25V7H19.2184H18.3454H18H16Z" fill="black"/>
</svg>
